<?xml version="1.0" encoding="UTF-8"?>
<svg version="1.1" xmlns="http://www.w3.org/2000/svg" width="1536" height="843">
<path d="M0 0 C506.88 0 1013.76 0 1536 0 C1536 278.19 1536 556.38 1536 843 C1029.12 843 522.24 843 0 843 C0 564.81 0 286.62 0 0 Z " fill="#E5F3F3" transform="translate(0,0)"/>
<path d="M0 0 C2.69129267 0.79757154 5.3946476 1.48952081 8.12109375 2.15625 C10.90026798 2.97077053 13.46081767 4.04579406 16.10620117 5.21533203 C19.4721253 6.60995368 22.95332451 7.63236543 26.4375 8.6875 C27.16904297 8.91244141 27.90058594 9.13738281 28.65429688 9.36914062 C30.43514536 9.91619866 32.21742517 10.45859372 34 11 C34 11.66 34 12.32 34 13 C35.2375 13.2475 36.475 13.495 37.75 13.75 C43.65028386 15.04862707 49.29734903 17.02875429 55 19 C54.5450645 27.47214715 53.84945777 35.89186411 52.9140625 44.32421875 C52.81310776 45.23462921 52.71215302 46.14503967 52.60813904 47.08303833 C52.0607512 51.95733759 51.48911772 56.82811755 50.89770508 61.69726562 C49.85748628 70.38438049 48.84905918 78.94976793 48.84765625 87.70703125 C48.63894581 104.29148413 48.63894581 104.29148413 43.81445312 109.24316406 C38.05499205 113.46607578 31.7247656 116.15318203 25.10253906 118.73681641 C20.61808854 120.56263849 16.49718536 122.89259034 12.3125 125.3125 C10.87904131 126.10701455 9.44545187 126.90129327 8.01171875 127.6953125 C5.34106483 129.20472891 2.72964711 130.77814115 0.14453125 132.4296875 C-0.7522937 133.001427 -0.7522937 133.001427 -1.66723633 133.5847168 C-3.2533794 134.60896386 -4.82650436 135.65329424 -6.3984375 136.69921875 C-9 138 -9 138 -10.90258789 137.7109375 C-13.12635448 136.95717097 -15.08778321 136.02957861 -17.16015625 134.92578125 C-17.94849854 134.50844727 -18.73684082 134.09111328 -19.54907227 133.66113281 C-20.37850342 133.21608398 -21.20793457 132.77103516 -22.0625 132.3125 C-23.34241821 131.6313916 -23.34241821 131.6313916 -24.64819336 130.93652344 C-27.10131755 129.62899822 -29.5510461 128.31531507 -32 127 C-33.1034375 126.41089844 -34.206875 125.82179688 -35.34375 125.21484375 C-40.54229203 122.41390516 -45.60844321 119.44450524 -50.65234375 116.375 C-53.37508379 114.78031698 -56.15519806 113.38364692 -59.015625 112.0546875 C-59.67046875 111.70664062 -60.3253125 111.35859375 -61 111 C-61.99394775 110.52852539 -62.98789551 110.05705078 -64.01196289 109.57128906 C-68.36295998 105.82713502 -68.27510797 102.33135107 -68.79296875 96.8046875 C-68.90972458 95.7921994 -69.02648041 94.7797113 -69.14677429 93.73654175 C-69.51952987 90.45164205 -69.85393583 87.16408951 -70.1875 83.875 C-70.43455848 81.62635671 -70.68407268 79.37798189 -70.93603516 77.12988281 C-71.42603567 72.72756444 -71.90212566 68.32412025 -72.36572266 63.91894531 C-72.87774508 59.08231455 -73.43956152 54.25574452 -74.04296875 49.4296875 C-74.18774658 48.26453613 -74.33252441 47.09938477 -74.48168945 45.89892578 C-74.73141623 43.89956141 -74.98357258 41.90049781 -75.23901367 39.90185547 C-76.06490241 32.92299983 -76.11263926 26.02257094 -76 19 C-74.65364583 18.51041667 -73.30729167 18.02083333 -71.9609375 17.53125 C-71.08147461 17.21140137 -70.20201172 16.89155273 -69.29589844 16.56201172 C-67.32270478 15.84457671 -65.34939449 15.12746241 -63.37597656 14.41064453 C-58.33908005 12.58056682 -53.30386073 10.74624124 -48.2734375 8.8984375 C-42.8566443 6.91069335 -37.43121817 4.94795646 -32 3 C-30.72141113 2.53835449 -30.72141113 2.53835449 -29.41699219 2.06738281 C-26.99108367 1.19729154 -24.55950458 0.34569687 -22.125 -0.5 C-21.41827148 -0.75539551 -20.71154297 -1.01079102 -19.98339844 -1.27392578 C-12.55455419 -3.80656722 -7.05194641 -3.7333834 0 0 Z " fill="#DC0233" transform="translate(888,358)"/>
<path d="M0 0 C3.90371537 1.30123846 4.8170602 3.11715718 7.1875 6.4375 C8.26064453 7.92056641 8.26064453 7.92056641 9.35546875 9.43359375 C11 12 11 12 11 14 C11.66 14 12.32 14 13 14 C14.59898529 15.79578349 16.05470892 17.5849271 17.5 19.5 C17.93852295 20.07733887 18.3770459 20.65467773 18.82885742 21.24951172 C37.55328738 46.34218268 47.33265517 72.83067793 43.71582031 104.48730469 C42.02316016 114.23938689 37.42356716 123.23413856 33 132 C32.67 132.66 32.34 133.32 32 134 C31.34 134 30.68 134 30 134 C29.74347656 134.72703125 29.48695313 135.4540625 29.22265625 136.203125 C25.58163957 144.53209605 17.82739365 152.13580711 11 158 C10.34 158 9.68 158 9 158 C8.67 158.99 8.34 159.98 8 161 C7.34 161 6.68 161 6 161 C5.90912109 162.64548828 5.90912109 162.64548828 5.81640625 164.32421875 C5.73195502 165.77865654 5.64730934 167.23308305 5.5625 168.6875 C5.52318359 169.40873047 5.48386719 170.12996094 5.44335938 170.87304688 C5.21814322 174.66707282 4.87160695 178.28651492 4 182 C2.02 182 0.04 182 -2 182 C-2.33719047 179.43795456 -2.66987153 176.87545682 -3 174.3125 C-3.09539062 173.59126953 -3.19078125 172.87003906 -3.2890625 172.12695312 C-3.76683735 168.39007129 -4.11919794 164.77708469 -4 161 C-4.66 161 -5.32 161 -6 161 C-7.71108689 159.37897032 -9.37253306 157.70496537 -11 156 C-11.763125 155.278125 -12.52625 154.55625 -13.3125 153.8125 C-15 152 -15 152 -15 150 C-15.66 150 -16.32 150 -17 150 C-35.01134966 130.70707353 -42.94048667 106.50868175 -42.14501953 80.48339844 C-41.64245185 71.87713844 -40.06132271 63.6528266 -36 56 C-35.31246699 54.34183216 -34.64438717 52.67540664 -34 51 C-32.51270358 47.21311451 -30.89412827 43.59884372 -29 40 C-28.34 40 -27.68 40 -27 40 C-26.90460938 39.27683594 -26.80921875 38.55367188 -26.7109375 37.80859375 C-25.88793339 34.55727531 -24.64223946 32.73431308 -22.625 30.0625 C-21.90699219 29.10601562 -21.18898438 28.14953125 -20.44921875 27.1640625 C-17.34492245 23.13115233 -14.18558668 19.14108468 -11.02270508 15.15405273 C-7.14256554 10.24202645 -3.5029666 5.18869455 0 0 Z " fill="#03694B" transform="translate(447,330)"/>
<path d="M0 0 C2.5546875 1.2734375 2.5546875 1.2734375 5 3 C7.03900878 4.21281302 9.08077151 5.42100578 11.125 6.625 C12.67574219 7.54152344 12.67574219 7.54152344 14.2578125 8.4765625 C16.96472602 10.09062453 16.96472602 10.09062453 20 11 C20 11.66 20 12.32 20 13 C20.82371094 13.23460937 21.64742187 13.46921875 22.49609375 13.7109375 C26.67883153 15.24973735 30.25890916 17.3267789 34.0625 19.625 C34.73732422 20.02589844 35.41214844 20.42679687 36.10742188 20.83984375 C37.52645231 21.68628296 38.93201366 22.55569014 40.32357788 23.44656372 C43.03048266 25.10058088 43.03048266 25.10058088 46.26565552 26.3288269 C55.01949932 30.38531266 55.01949932 30.38531266 56.72669029 34.93785477 C57.86752777 40.91200098 57.48922864 46.9858408 57.26953125 53.03125 C57.24526139 54.9927357 57.22676731 56.95430063 57.21379089 58.91589355 C57.16432796 64.06042975 57.03681124 69.20013627 56.89263916 74.34277344 C56.75925602 79.59764254 56.70019683 84.85329833 56.63476562 90.109375 C56.49565639 100.40836359 56.27401973 110.70377911 56 121 C50.77626441 121.16251824 48.1912976 120.35424741 43.6875 117.625 C42.46620725 116.89312666 41.24484997 116.16136101 40.0234375 115.4296875 C39.37858398 115.03749023 38.73373047 114.64529297 38.06933594 114.24121094 C35.86897785 112.92141144 33.64575831 111.64884371 31.4140625 110.3828125 C29.88014488 109.50531925 28.34628969 108.62771685 26.8125 107.75 C26.08184326 107.33830566 25.35118652 106.92661133 24.59838867 106.50244141 C23.91236572 106.10460449 23.22634277 105.70676758 22.51953125 105.296875 C21.60844604 104.77625488 21.60844604 104.77625488 20.67895508 104.24511719 C18.43483788 102.58087439 17.33372124 101.50709761 16 99 C15.53725565 95.77269905 15.53507066 92.56485148 15.5234375 89.30859375 C15.50785797 88.36693863 15.49227844 87.42528351 15.47622681 86.45509338 C15.42873109 83.44923728 15.40095413 80.44361275 15.375 77.4375 C15.33849478 74.42798047 15.29785911 71.41859169 15.25234985 68.40919495 C15.22515595 66.53731425 15.20379047 64.665338 15.18881226 62.7933197 C15.17855011 61.94556473 15.16828796 61.09780975 15.15771484 60.22436523 C15.15121918 59.47920151 15.14472351 58.73403778 15.13803101 57.96629333 C15.06698071 55.78591091 15.06698071 55.78591091 14 53 C12.01017187 52.30356015 10.00705243 51.645124 8 51 C6.51050735 50.12144263 5.0318925 49.22427688 3.5625 48.3125 C0.6133927 46.67138547 -0.88543909 46.00864611 -4.3125 45.75 C-10.62142727 47.88861941 -17.25328514 51.25328514 -22 56 C-22.29516119 57.90271286 -22.29516119 57.90271286 -22.23950195 60.0949707 C-22.24323318 60.93957352 -22.24696442 61.78417633 -22.25080872 62.65437317 C-22.24667465 63.56893784 -22.24254059 64.4835025 -22.23828125 65.42578125 C-22.25370316 67.3561268 -22.27000696 69.28646548 -22.28710938 71.21679688 C-22.30355986 74.2650466 -22.31249932 77.31279357 -22.30541992 80.36108398 C-22.3027996 83.29989694 -22.33092779 86.23717341 -22.36328125 89.17578125 C-22.35307449 90.08427322 -22.34286774 90.9927652 -22.33235168 91.92878723 C-22.39966441 96.28807679 -22.51217895 98.35608053 -25.20800781 101.91455078 C-27.84803753 103.88649323 -30.42020956 105.60785434 -33.30859375 107.19140625 C-34.30310547 107.74376953 -35.29761719 108.29613281 -36.32226562 108.86523438 C-37.35029297 109.42533203 -38.37832031 109.98542969 -39.4375 110.5625 C-41.47902905 111.68669 -43.51942768 112.81293571 -45.55859375 113.94140625 C-46.98921143 114.72862061 -46.98921143 114.72862061 -48.44873047 115.53173828 C-50.53708866 116.73359342 -52.46504165 117.98845009 -54.41015625 119.40234375 C-57.31588082 121.19486464 -58.67532664 121.14198511 -62 121 C-62.18545201 109.63013067 -62.32755322 98.26062169 -62.41449738 86.88954735 C-62.45622944 81.60925207 -62.5128209 76.32999226 -62.60351562 71.05029297 C-62.69051331 65.95385207 -62.73828905 60.85840624 -62.75901794 55.76128006 C-62.77378726 53.81790118 -62.80263017 51.87457613 -62.84584045 49.93162155 C-63.16995268 34.75261739 -63.16995268 34.75261739 -60.37437439 30.56477356 C-58.30311285 28.96266924 -56.42145906 27.97565856 -54 27 C-52.9901001 26.37730225 -51.9802002 25.75460449 -50.93969727 25.11303711 C-49.99151123 24.5897583 -49.0433252 24.06647949 -48.06640625 23.52734375 C-47.00486328 22.93759766 -45.94332031 22.34785156 -44.84960938 21.74023438 C-43.76486328 21.14533203 -42.68011719 20.55042969 -41.5625 19.9375 C-40.48162109 19.33873047 -39.40074219 18.73996094 -38.28710938 18.12304688 C-34.34472992 15.94027402 -30.39927737 13.76337582 -26.44335938 11.60522461 C-20.83017809 8.52685652 -15.53578889 5.13069357 -10.2109375 1.57421875 C-6.42672929 -0.28105608 -4.16686332 -0.51013086 0 0 Z " fill="#343536" transform="translate(1076,365)"/>
<path d="M0 0 C5.85655378 -0.3029252 8.76050023 0.22614718 14 3 C16.69129267 3.79757154 19.3946476 4.48952081 22.12109375 5.15625 C24.90026798 5.97077053 27.46081767 7.04579406 30.10620117 8.21533203 C33.4721253 9.60995368 36.95332451 10.63236543 40.4375 11.6875 C41.53481445 12.02491211 41.53481445 12.02491211 42.65429688 12.36914062 C44.43514536 12.91619866 46.21742517 13.45859372 48 14 C48 14.66 48 15.32 48 16 C49.2375 16.2475 50.475 16.495 51.75 16.75 C57.65028386 18.04862707 63.29734903 20.02875429 69 22 C68.5450645 30.47214715 67.84945777 38.89186411 66.9140625 47.32421875 C66.81310776 48.23462921 66.71215302 49.14503967 66.60813904 50.08303833 C66.0607512 54.95733759 65.48911772 59.82811755 64.89770508 64.69726562 C63.85748628 73.38438049 62.84905918 81.94976793 62.84765625 90.70703125 C62.63894581 107.29148413 62.63894581 107.29148413 57.81445312 112.24316406 C52.05927173 116.46293786 45.7375995 119.1432681 39.12011719 121.72363281 C34.53729955 123.59835665 30.33417711 126.01246049 26.0625 128.5 C24.05315148 129.62625006 22.03948161 130.74427922 20.02392578 131.859375 C18.56276407 132.68284273 17.11464961 133.52961099 15.67529297 134.390625 C14.89428223 134.84953125 14.11327148 135.3084375 13.30859375 135.78125 C12.25176392 136.41643555 12.25176392 136.41643555 11.17358398 137.06445312 C8.63763828 138.15596654 6.73314644 138.16990557 4 138 C3.4375 136.0625 3.4375 136.0625 3 134 C3.33 133.67 3.66 133.34 4 133 C4.06389955 130.13901691 4.06620423 127.30152735 4.02734375 124.44140625 C4.01469759 122.67643425 4.00233662 120.91146019 3.99023438 119.14648438 C3.96538612 116.35044013 3.93740459 113.55450117 3.90405273 110.75854492 C3.87393458 108.06949164 3.85610034 105.38057394 3.83984375 102.69140625 C3.82638412 101.85178848 3.8129245 101.01217072 3.79905701 100.14710999 C3.79014711 98.09699821 3.88597986 96.04695801 4 94 C4.99 93.01 4.99 93.01 6 92 C6 90.68 6 89.36 6 88 C4.68 87.67 3.36 87.34 2 87 C8.27 87 14.54 87 21 87 C23 92 23 92 23 95 C23.66 95 24.32 95 25 95 C25.6708712 96.6232687 26.33657029 98.24867578 27 99.875 C27.37125 100.77992188 27.7425 101.68484375 28.125 102.6171875 C29 105 29 105 29 107 C33.95 107 38.9 107 44 107 C37.74684535 92.88546368 37.74684535 92.88546368 30.9765625 79.015625 C29.71919234 76.42041299 28.76914995 73.75755127 27.8046875 71.04296875 C26.88643109 68.71166727 25.7783133 66.53674709 24.625 64.3125 C22.69760424 60.54948923 21.10094145 56.77423757 19.625 52.8125 C17.82973231 48.01576915 15.82782314 43.3708821 13.625 38.75 C12.41038638 36.16957605 11.20352782 33.58561129 10 31 C9.67112793 30.29762207 9.34225586 29.59524414 9.00341797 28.87158203 C5.14636683 20.52367444 2.06239908 13.63994562 3.046875 4.22265625 C3.03140625 3.48917969 3.0159375 2.75570313 3 2 C2.01 1.34 1.02 0.68 0 0 Z " fill="#C30333" transform="translate(874,355)"/>
<path d="M0 0 C8.44465548 6.48104608 13.8743656 13.81613324 16.96875 23.98046875 C17.360625 25.15609375 17.7525 26.33171875 18.15625 27.54296875 C19.32419591 33.92175027 18.96875 40.49564405 18.96875 46.98046875 C-8.09125 46.98046875 -35.15125 46.98046875 -63.03125 46.98046875 C-61.00818393 63.47091388 -61.00818393 63.47091388 -54.03125 76.98046875 C-53.51691406 77.72683594 -53.00257813 78.47320312 -52.47265625 79.2421875 C-48.08040537 84.94052737 -43.02836622 88.2704112 -36.03125 89.98046875 C-24.92288429 91.36781434 -13.74415839 91.10274491 -4.03125 84.98046875 C-2.12083158 83.41316318 -0.64576541 81.86407006 0.96875 79.98046875 C1.62875 79.98046875 2.28875 79.98046875 2.96875 79.98046875 C3.2575 79.21734375 3.54625 78.45421875 3.84375 77.66796875 C4.96875 74.98046875 4.96875 74.98046875 6.96875 71.98046875 C7.52894482 70.45266469 8.04789417 68.90929326 8.53125 67.35546875 C9.86522059 63.08399816 9.86522059 63.08399816 10.96875 61.98046875 C12.96833364 61.93966092 14.96920254 61.93792519 16.96875 61.98046875 C16.92632331 71.75982078 13.37410296 79.58054648 6.78125 86.79296875 C-2.61128093 95.43742199 -13.54636806 98.34027409 -25.96875 98.29296875 C-26.81115234 98.30908203 -27.65355469 98.32519531 -28.52148438 98.34179688 C-38.41687807 98.34941458 -47.20771991 95.0531932 -55.03125 88.98046875 C-66.67610782 76.88565507 -71.39710502 62.37871408 -71.46875 45.73046875 C-70.99938445 31.35081499 -67.45165364 17.18196751 -57.58203125 6.2734375 C-41.1147093 -8.52949969 -19.15425803 -12.76127758 0 0 Z " fill="#0B0E11" transform="translate(632.03125,376.01953125)"/>
<path d="M0 0 C2.91842754 2.49642865 4.07992313 5.1017225 5.5234375 8.62890625 C5.9875 9.74716797 6.4515625 10.86542969 6.9296875 12.01757812 C7.40664063 13.18740234 7.88359375 14.35722656 8.375 15.5625 C11.3473511 22.80148146 14.34191399 29.94929307 17.95751953 36.89428711 C18.95014531 38.89929819 19.75445262 40.89240026 20.5 43 C21.59218096 46.07908644 22.93444505 48.91146689 24.4375 51.8125 C26.19429138 55.23746123 27.62922061 58.6089023 28.875 62.25 C30.43115516 66.73426751 32.38896704 70.91353271 34.5625 75.125 C37.24393296 80.34976638 39.34984891 85.37007275 41 91 C36.05 91 31.1 91 26 91 C23.65494181 86.30988363 22.58416218 83.90696232 22 79 C21.34 79 20.68 79 20 79 C19.34 76.36 18.68 73.72 18 71 C6.12 71 -5.76 71 -18 71 C-18.33 72.65 -18.66 74.3 -19 76 C-19.43369251 77.26951888 -19.90262031 78.527688 -20.41015625 79.76953125 C-20.67763672 80.43017578 -20.94511719 81.09082031 -21.22070312 81.77148438 C-21.63739258 82.78178711 -21.63739258 82.78178711 -22.0625 83.8125 C-22.34416016 84.50537109 -22.62582031 85.19824219 -22.91601562 85.91210938 C-23.60674973 87.60967624 -24.30283728 89.30506312 -25 91 C-29.95 91 -34.9 91 -40 91 C-39.23264528 86.39587166 -38.67533263 83.83318678 -36.77734375 79.83203125 C-36.32464111 78.86458984 -35.87193848 77.89714844 -35.40551758 76.90039062 C-34.92107178 75.88138672 -34.43662598 74.86238281 -33.9375 73.8125 C-29.02678694 63.31012597 -24.41199422 52.72026102 -20 42 C-19.34 42 -18.68 42 -18 42 C-17.79375 40.7625 -17.5875 39.525 -17.375 38.25 C-16.227519 33.00791055 -13.94187243 28.61669283 -11.46484375 23.88671875 C-9.66127582 20.33248754 -8.30238945 16.76245841 -7 13 C-6.34 13 -5.68 13 -5 13 C-4.9175 11.96875 -4.835 10.9375 -4.75 9.875 C-3.89746699 5.47024613 -2.65758511 3.51487063 0 0 Z " fill="#FCF4F4" transform="translate(877,371)"/>
<path d="M0 0 C0 0.66 0 1.32 0 2 C1.0209375 2.2784375 1.0209375 2.2784375 2.0625 2.5625 C10.48337756 6.68335498 14.74437381 14.57381498 17.75 23.13671875 C19.12856765 28.00957246 19 31.73431521 19 37 C-5.09 37 -29.18 37 -54 37 C-54 26 -54 26 -53 23 C-52.34 23 -51.68 23 -51 23 C-50.9071875 21.7625 -50.9071875 21.7625 -50.8125 20.5 C-48.92820724 12.38304656 -43.61198071 6.8064952 -37 2 C-26.33072499 -4.49605305 -11.27265139 -5.6363257 0 0 Z " fill="#E3EFEF" transform="translate(624,379)"/>
<path d="M0 0 C6.06966268 -0.41859743 9.20232338 -0.14344799 14 4 C14.94074644 5.38382121 15.8772118 6.7708515 16.78613281 8.17578125 C19.29605986 11.9477392 22.05195973 15.54908042 24.75 19.1875 C25.99750355 20.87752466 27.24489988 22.56762847 28.4921875 24.2578125 C30.55441343 27.04840379 32.62132937 29.8353275 34.6953125 32.6171875 C35.41460938 33.58914063 36.13390625 34.56109375 36.875 35.5625 C37.49117187 36.38878906 38.10734375 37.21507812 38.7421875 38.06640625 C40 40 40 40 40 42 C44.27723113 38.12375929 47.48257352 33.71142149 50.83203125 29.0234375 C53.72246168 24.99245885 56.70466475 21.03410999 59.69140625 17.07421875 C61.2949329 14.93889646 62.8862655 12.79804301 64.46484375 10.64453125 C64.86840088 10.09724365 65.27195801 9.54995605 65.68774414 8.98608398 C66.81304835 7.45906722 67.93399666 5.92884327 69.0546875 4.3984375 C71 2 71 2 74 0 C76.04296875 -0.1953125 76.04296875 -0.1953125 78.1875 -0.125 C79.445625 -0.08375 80.70375 -0.0425 82 0 C82 3 82 3 79.75 5.359375 C78.8425 6.23078125 77.935 7.1021875 77 8 C75.63085557 9.72212697 74.29883686 11.47424648 73 13.25 C68.6266363 19.16905841 64.17315167 25.02149079 59.69335938 30.86035156 C58.6476665 32.22466408 57.60609053 33.59214285 56.56884766 34.96289062 C55.49533454 36.35682052 54.3943974 37.72993841 53.27099609 39.08398438 C50.76586996 42.17738551 49.14543581 44.22019613 48.40625 48.18359375 C49.13130323 51.6228265 50.28901631 53.32764518 52.5 56.0625 C53.71429687 57.60164063 53.71429687 57.60164063 54.953125 59.171875 C55.65985352 60.05456055 55.65985352 60.05456055 56.38085938 60.95507812 C59.73483845 65.19104446 62.97989268 69.5117116 66.25 73.8125 C66.93513672 74.70783447 67.62027344 75.60316895 68.32617188 76.52563477 C79 90.48882431 79 90.48882431 79 93 C79.66 93 80.32 93 81 93 C85 98.41176471 85 98.41176471 85 101 C81.11021617 101.63506675 77.52811946 102.0915139 74.1953125 99.7109375 C72.2912165 97.56996832 70.64833206 95.34490753 69 93 C68.23945312 91.9584375 67.47890625 90.916875 66.6953125 89.84375 C64.53676618 86.8717026 62.42015054 83.87185085 60.31152344 80.86425781 C58.16448809 77.81236617 55.98677698 74.78251137 53.8125 71.75 C50.26970049 66.80689537 46.79023816 61.82551921 43.375 56.79296875 C42.11003746 54.87268503 42.11003746 54.87268503 40 54 C39.79632812 54.65742188 39.59265625 55.31484375 39.3828125 55.9921875 C37.45871396 60.17737358 34.71570487 63.51970541 31.875 67.125 C30.6891224 68.6515816 29.50422447 70.17892473 28.3203125 71.70703125 C27.74700195 72.44518066 27.17369141 73.18333008 26.58300781 73.94384766 C24.59007879 76.53244239 22.66084038 79.16285291 20.75 81.8125 C19.83734375 83.07320312 19.83734375 83.07320312 18.90625 84.359375 C17.88876523 85.7688416 16.87190313 87.17876533 15.859375 88.59179688 C14.66417349 90.25460157 13.45803132 91.90900095 12.25 93.5625 C11.53328125 94.55378906 10.8165625 95.54507813 10.078125 96.56640625 C8.07514328 98.91200326 6.87896962 100.00745201 4 101 C0.75 101.125 0.75 101.125 -2 101 C-1.40677688 98.01558758 -0.54989018 96.07806652 1.30078125 93.671875 C1.77708984 93.04539062 2.25339844 92.41890625 2.74414062 91.7734375 C3.26169922 91.10570312 3.77925781 90.43796875 4.3125 89.75 C5.41292927 88.30742045 6.51318492 86.86470846 7.61328125 85.421875 C8.17740723 84.68646484 8.7415332 83.95105469 9.32275391 83.19335938 C11.90676974 79.81420388 14.45254187 76.40674493 17 73 C17.9841659 71.6873432 18.96854242 70.37484429 19.953125 69.0625 C20.44619141 68.40507812 20.93925781 67.74765625 21.44726562 67.0703125 C25.96484375 61.046875 30.48242188 55.0234375 35 49 C29.06429659 36.25569561 18.03819668 24.97515673 9.40673828 13.96826172 C7.99675422 12.16909445 6.59166009 10.36621361 5.1875 8.5625 C4.39730469 7.55316406 3.60710938 6.54382813 2.79296875 5.50390625 C1 3 1 3 0 0 Z " fill="#0B0F11" transform="translate(658,371)"/>
<path d="M0 0 C0.33 0 0.66 0 1 0 C4.62984177 60.89419435 4.62984177 60.89419435 4 88 C1.6875 88.625 1.6875 88.625 -1 89 C-1.99 88.34 -2.98 87.68 -4 87 C-4.32373047 84.34741211 -4.32373047 84.34741211 -4.2421875 80.83984375 C-4.23009247 80.18692856 -4.21799744 79.53401337 -4.20553589 78.86131287 C-4.15577235 76.57332042 -4.07945657 74.28714868 -4 72 C-3.95993835 70.70996063 -3.95993835 70.70996063 -3.91906738 69.39385986 C-3.70067935 62.44803626 -3.42026374 55.50542741 -3.125 48.5625 C-3.08086975 47.50216553 -3.0367395 46.44183105 -2.99127197 45.34936523 C-2.35569225 30.19521813 -1.55554307 15.09207745 0 0 Z " fill="#D1ECE7" transform="translate(448,400)"/>
<path d="M0 0 C2.19548032 2.7288456 3.64231134 5.22737523 4.875 8.5 C6.80549426 13.53574666 8.90463017 18.48449198 11.046875 23.43359375 C12 26 12 26 12 29 C4.41 29 -3.18 29 -11 29 C-8.74198251 18.83892128 -8.74198251 18.83892128 -6.625 13.9375 C-6.19058594 12.93074219 -5.75617187 11.92398437 -5.30859375 10.88671875 C-3.63756109 7.20047058 -1.86500236 3.5918564 0 0 Z " fill="#C20534" transform="translate(877,400)"/>
<path d="M0 0 C3 3.75 3 3.75 3 6 C2.01 5.67 1.02 5.34 0 5 C-3.52350129 11.63729312 -4.7201206 17.513226 -5 25 C-2.69 25.33 -0.38 25.66 2 26 C2 26.33 2 26.66 2 27 C4.97 27.33 7.94 27.66 11 28 C11.33 27.34 11.66 26.68 12 26 C12 26.99 12 27.98 12 29 C4.41 29 -3.18 29 -11 29 C-8.74198251 18.83892128 -8.74198251 18.83892128 -6.625 13.9375 C-6.19058594 12.93074219 -5.75617187 11.92398437 -5.30859375 10.88671875 C-3.63756109 7.20047058 -1.86500236 3.5918564 0 0 Z " fill="#D81D4D" transform="translate(877,400)"/>
<path d="M0 0 C0.78688445 2.77723925 1.11949924 5.22610077 1.09765625 8.109375 C1.09443359 8.86347656 1.09121094 9.61757813 1.08789062 10.39453125 C1.07951172 11.17183594 1.07113281 11.94914062 1.0625 12.75 C1.05798828 13.54277344 1.05347656 14.33554687 1.04882812 15.15234375 C1.03708565 17.10159508 1.01915146 19.05080738 1 21 C-0.98 21.33 -2.96 21.66 -5 22 C-6.24546405 19.50907189 -5.7767578 18.58919267 -5 16 C-5.66 15.67 -6.32 15.34 -7 15 C-6.34 15 -5.68 15 -5 15 C-4.9175 14.01 -4.835 13.02 -4.75 12 C-4.13691993 7.52543052 -2.18031955 3.90429315 0 0 Z " fill="#D90034" transform="translate(877,404)"/>
<path d="M0 0 C0.33 0 0.66 0 1 0 C1.79585256 10.687163 2.12825004 21.28399677 2 32 C1.01 32.495 1.01 32.495 0 33 C-0.40729228 35.32156597 -0.74438677 37.6568787 -1 40 C-1.33 40 -1.66 40 -2 40 C-2.35541223 26.57331559 -1.25835166 13.35994639 0 0 Z " fill="#B8E2DA" transform="translate(448,400)"/>
<path d="M0 0 C0.33 0 0.66 0 1 0 C1.02684312 2.81256281 1.04676188 5.62487241 1.0625 8.4375 C1.07087891 9.23994141 1.07925781 10.04238281 1.08789062 10.86914062 C1.0965143 12.91295221 1.0522815 14.95683902 1 17 C0.67 17.33 0.34 17.66 0 18 C-0.15740605 19.70563778 -0.25093392 21.41727244 -0.31640625 23.12890625 C-0.35830078 24.16337891 -0.40019531 25.19785156 -0.44335938 26.26367188 C-0.48267578 27.35228516 -0.52199219 28.44089844 -0.5625 29.5625 C-0.62727539 31.2012207 -0.62727539 31.2012207 -0.69335938 32.87304688 C-0.79982068 35.58189564 -0.90183516 38.29083992 -1 41 C-1.33 41 -1.66 41 -2 41 C-2.66 44.96 -3.32 48.92 -4 53 C-4.33 53 -4.66 53 -5 53 C-4.48738165 35.23777423 -2.11542117 17.62605967 0 0 Z " fill="#E9D0D6" transform="translate(941,392)"/>
<path d="M0 0 C0.33 0 0.66 0 1 0 C1.22634311 3.4157233 1.42792113 6.83247322 1.625 10.25 C1.68945312 11.21808594 1.75390625 12.18617188 1.8203125 13.18359375 C1.871875 14.11816406 1.9234375 15.05273438 1.9765625 16.015625 C2.02893066 16.87446289 2.08129883 17.73330078 2.13525391 18.61816406 C2 21 2 21 0 25 C-2.97 24.01 -5.94 23.02 -9 22 C-9 19.03 -9 16.06 -9 13 C-8.67 13 -8.34 13 -8 13 C-8 15.64 -8 18.28 -8 21 C-6.02 21 -4.04 21 -2 21 C-1.93941406 19.90300781 -1.87882812 18.80601562 -1.81640625 17.67578125 C-1.73195502 16.22134346 -1.64730934 14.76691695 -1.5625 13.3125 C-1.52318359 12.59126953 -1.48386719 11.87003906 -1.44335938 11.12695312 C-1.21814322 7.33292718 -0.87160695 3.71348508 0 0 Z " fill="#B4D6CF" transform="translate(453,491)"/>
<path d="M0 0 C0.66 0 1.32 0 2 0 C1.85795259 1.58367747 1.71119847 3.16693318 1.5625 4.75 C1.48128906 5.63171875 1.40007813 6.5134375 1.31640625 7.421875 C1.03761535 9.69350452 0.61209423 11.79851823 0 14 C-3.12128415 15.01441735 -5.16627996 15.40042468 -8.1796875 13.953125 C-10.16907375 12.69294439 -12.1013456 11.39266782 -14 10 C-13.67 9.34 -13.34 8.68 -13 8 C-11.35 8.33 -9.7 8.66 -8 9 C-8 9.66 -8 10.32 -8 11 C-7.34 11 -6.68 11 -6 11 C-6 10.34 -6 9.68 -6 9 C-5.01 9 -4.02 9 -3 9 C-2.87625 8.443125 -2.7525 7.88625 -2.625 7.3125 C-1.94023145 4.77885636 -1.00866237 2.42078968 0 0 Z " fill="#D70433" transform="translate(836,456)"/>
<path d="M0 0 C5.61 0 11.22 0 17 0 C17 0.33 17 0.66 17 1 C16.30132813 1.02578125 15.60265625 1.0515625 14.8828125 1.078125 C13.97273437 1.13484375 13.06265625 1.1915625 12.125 1.25 C11.22007812 1.29640625 10.31515625 1.3428125 9.3828125 1.390625 C8.59648438 1.59171875 7.81015625 1.7928125 7 2 C5.85626522 3.90723171 5.85626522 3.90723171 5 6 C3.34375 7.16015625 3.34375 7.16015625 1.5 8.0625 C-1.45895159 9.5231689 -2.04036843 10.06055265 -4 13 C-3.27991594 8.39146203 -1.68704061 4.32762591 0 0 Z " fill="#D61241" transform="translate(859,442)"/>
<path d="M0 0 C2.64 0 5.28 0 8 0 C7.34 0.66 6.68 1.32 6 2 C6.99 2.66 7.98 3.32 9 4 C8.01 4 7.02 4 6 4 C6 4.66 6 5.32 6 6 C-0.875 4.125 -0.875 4.125 -2 3 C-6.84034716 2.83592044 -11.23258627 3.04651725 -16 4 C-16 3.01 -16 2.02 -16 1 C-10.72 1 -5.44 1 0 1 C0 0.67 0 0.34 0 0 Z " fill="#E3D5D6" transform="translate(884,353)"/>
<path d="M0 0 C1.299375 0.2475 1.299375 0.2475 2.625 0.5 C5.81225199 0.97218548 8.78485027 1.07655118 12 1 C11.67 1.99 11.34 2.98 11 4 C10.34 4 9.68 4 9 4 C9 5.65 9 7.3 9 9 C8.67 9 8.34 9 8 9 C7.67 7.35 7.34 5.7 7 4 C5.35 3.67 3.7 3.34 2 3 C2 4.32 2 5.64 2 7 C1.8513773 8.75162469 1.68402733 10.50174037 1.5 12.25 C1.4071875 13.14203125 1.314375 14.0340625 1.21875 14.953125 C1.1465625 15.62859375 1.074375 16.3040625 1 17 C0.67 17 0.34 17 0 17 C-0.04898437 16.07316406 -0.09796875 15.14632813 -0.1484375 14.19140625 C-0.22320312 12.99386719 -0.29796875 11.79632813 -0.375 10.5625 C-0.44460938 9.36753906 -0.51421875 8.17257812 -0.5859375 6.94140625 C-0.72257812 5.97074219 -0.85921875 5.00007813 -1 4 C-1.66 3.67 -2.32 3.34 -3 3 C-2.01 3 -1.02 3 0 3 C0 2.01 0 1.02 0 0 Z " fill="#277A62" transform="translate(444,487)"/>
<path d="M0 0 C0.33 0 0.66 0 1 0 C2.71979056 7.1331561 3.25870025 13.80233992 3.125 21.125 C3.11597656 22.08148438 3.10695313 23.03796875 3.09765625 24.0234375 C3.07439827 26.34923525 3.04172213 28.67447294 3 31 C2.67 31 2.34 31 2 31 C0.46629876 20.57904782 -0.27256607 10.53922138 0 0 Z " fill="#C81C42" transform="translate(817,417)"/>
<path d="M0 0 C-1.423125 0.61875 -1.423125 0.61875 -2.875 1.25 C-6.38336811 2.8302645 -6.38336811 2.8302645 -8 7 C-11.96 6.67 -15.92 6.34 -20 6 C-16.69148445 4.34574223 -13.38894462 2.79092709 -10 1.3125 C-8.96875 0.85488281 -7.9375 0.39726562 -6.875 -0.07421875 C-3.96169998 -1.01233302 -2.79147374 -1.10719511 0 0 Z " fill="#D91946" transform="translate(840,369)"/>
<path d="M0 0 C0.66 0 1.32 0 2 0 C2 5.94 2 11.88 2 18 C1.34 18 0.68 18 0 18 C-0.19384179 15.18780295 -0.38036603 12.37545804 -0.5625 9.5625 C-0.61857422 8.76005859 -0.67464844 7.95761719 -0.73242188 7.13085938 C-0.8616295 5.08937889 -0.9351273 3.04453631 -1 1 C-0.67 0.67 -0.34 0.34 0 0 Z " fill="#E3F6F5" transform="translate(448,432)"/>
<path d="M0 0 C5.85655378 -0.3029252 8.76050023 0.22614718 14 3 C17.63669272 4.11975837 21.30964664 5.07412843 25 6 C25 6.33 25 6.66 25 7 C22.69 7 20.38 7 18 7 C18 6.34 18 5.68 18 5 C17.31292969 4.95101563 16.62585938 4.90203125 15.91796875 4.8515625 C15.01691406 4.77679688 14.11585938 4.70203125 13.1875 4.625 C12.29417969 4.55539062 11.40085937 4.48578125 10.48046875 4.4140625 C8 4 8 4 5 2 C3.34450469 1.61500109 1.6777567 1.27206865 0 1 C0 0.67 0 0.34 0 0 Z " fill="#C4214D" transform="translate(874,355)"/>
<path d="M0 0 C3 3.75 3 3.75 3 6 C2.01 5.67 1.02 5.34 0 5 C-3.24558406 11.75505602 -3.24558406 11.75505602 -5 19 C-5.99 19.33 -6.98 19.66 -8 20 C-6.12849037 12.84870304 -3.50213658 6.50594543 0 0 Z " fill="#D3476C" transform="translate(877,400)"/>
<path d="M0 0 C0.66 0.33 1.32 0.66 2 1 C1.84660156 1.84820312 1.69320312 2.69640625 1.53515625 3.5703125 C0.99843169 7.01005091 0.68547896 10.40329462 0.4375 13.875 C0.31181641 15.60363281 0.31181641 15.60363281 0.18359375 17.3671875 C0.12300781 18.23601562 0.06242188 19.10484375 0 20 C-0.33 20 -0.66 20 -1 20 C-1.84023188 15.64667264 -2.10770995 11.55557481 -2.0625 7.125 C-2.05347656 5.97257812 -2.04445313 4.82015625 -2.03515625 3.6328125 C-2.02355469 2.76398438 -2.01195312 1.89515625 -2 1 C-1.34 0.67 -0.68 0.34 0 0 Z " fill="#D2224E" transform="translate(814,376)"/>
<path d="M0 0 C0 2 0 2 -1.8125 4.125 C-4 6 -4 6 -7 6 C-7.33 6.66 -7.66 7.32 -8 8 C-9.32 7.67 -10.64 7.34 -12 7 C-12 7.66 -12 8.32 -12 9 C-13.32 8.67 -14.64 8.34 -16 8 C-13.71125827 6.66141476 -11.41930344 5.32898986 -9.125 4 C-8.47402344 3.6184375 -7.82304688 3.236875 -7.15234375 2.84375 C-2.2265625 0 -2.2265625 0 0 0 Z " fill="#E2C0CA" transform="translate(896,486)"/>
<path d="M0 0 C-0.66 2.31 -1.32 4.62 -2 7 C-2.99 6.67 -3.98 6.34 -5 6 C-5.99 6.66 -6.98 7.32 -8 8 C-8 7.34 -8 6.68 -8 6 C-9.32 6.33 -10.64 6.66 -12 7 C-8.8380314 3.47318887 -4.98182478 0 0 0 Z " fill="#E4D2D2" transform="translate(912,477)"/>
<path d="M0 0 C0.33 0 0.66 0 1 0 C1.0544207 2.68777802 1.09387266 5.37443212 1.125 8.0625 C1.14175781 8.81466797 1.15851562 9.56683594 1.17578125 10.34179688 C1.21865121 15.29327709 0.58399375 19.30414451 -1 24 C-1.33 24 -1.66 24 -2 24 C-1.03644647 7.1070615 -1.03644647 7.1070615 0 0 Z " fill="#EAACBC" transform="translate(941,392)"/>
<path d="M0 0 C1.67542976 0.28604898 3.34385343 0.61781233 5 1 C5 1.66 5 2.32 5 3 C5.99 2.67 6.98 2.34 8 2 C8.66 2.33 9.32 2.66 10 3 C9.67 4.32 9.34 5.64 9 7 C5.00499382 5.6302836 2.19990508 3.74277578 -1 1 C-0.67 0.67 -0.34 0.34 0 0 Z " fill="#D71F4E" transform="translate(823,464)"/>
<path d="M0 0 C3.96 0.33 7.92 0.66 12 1 C12.33 1.99 12.66 2.98 13 4 C13.99 4.33 14.98 4.66 16 5 C14 6 14 6 10.7421875 5.00390625 C9.4502948 4.53110016 8.16131362 4.05028031 6.875 3.5625 C6.21628906 3.31951172 5.55757812 3.07652344 4.87890625 2.82617188 C3.25008662 2.22421679 1.62470425 1.61297588 0 1 C0 0.67 0 0.34 0 0 Z " fill="#DFBAC2" transform="translate(922,370)"/>
<path d="M0 0 C2.34914492 2.34914492 2.73140357 3.95679446 3.625 7.125 C3.88539063 8.03507812 4.14578125 8.94515625 4.4140625 9.8828125 C4.70410156 10.93082031 4.70410156 10.93082031 5 12 C3.02 11.34 1.04 10.68 -1 10 C-1 9.34 -1 8.68 -1 8 C-0.34 8 0.32 8 1 8 C0.67 5.36 0.34 2.72 0 0 Z " fill="#C8254F" transform="translate(883,414)"/>
<path d="M0 0 C0.66 0 1.32 0 2 0 C2 0.99 2 1.98 2 3 C3.32 2.67 4.64 2.34 6 2 C5.67 4.97 5.34 7.94 5 11 C1.71779105 9.35889552 1.25429211 6.30677012 0 3 C0 2.01 0 1.02 0 0 Z " fill="#C82953" transform="translate(904,429)"/>
<path d="M0 0 C0.99 0.99 1.98 1.98 3 3 C2 5 2 5 0.0625 5.875 C-2.42001234 7.22909764 -2.96871397 8.42178493 -4 11 C-4.33 10.34 -4.66 9.68 -5 9 C-4.00390625 6.8359375 -4.00390625 6.8359375 -2.5625 4.375 C-2.08941406 3.55773437 -1.61632812 2.74046875 -1.12890625 1.8984375 C-0.75636719 1.27195312 -0.38382813 0.64546875 0 0 Z " fill="#F3C4CA" transform="translate(877,371)"/>
<path d="M0 0 C0.33 0 0.66 0 1 0 C1 3.63 1 7.26 1 11 C0.01 11.495 0.01 11.495 -1 12 C-2.42857143 3.42857143 -2.42857143 3.42857143 0 0 Z " fill="#136E54" transform="translate(443,476)"/>
<path d="M0 0 C2.34914492 2.34914492 2.73140357 3.95679446 3.625 7.125 C3.88539063 8.03507812 4.14578125 8.94515625 4.4140625 9.8828125 C4.70410156 10.93082031 4.70410156 10.93082031 5 12 C4.01 11.34 3.02 10.68 2 10 C2 9.34 2 8.68 2 8 C1.34 8 0.68 8 0 8 C0 5.36 0 2.72 0 0 Z " fill="#C3385D" transform="translate(898,450)"/>
<path d="M0 0 C0.66 0.66 1.32 1.32 2 2 C3.31747324 2.69748583 4.64914193 3.36959957 6 4 C5.67 4.66 5.34 5.32 5 6 C0 4 0 4 -5 2 C-5 1.67 -5 1.34 -5 1 C-2.625 0.375 -2.625 0.375 0 0 Z " fill="#DB2250" transform="translate(837,470)"/>
<path d="M0 0 C3 1 3 1 4 3 C5.65 2.67 7.3 2.34 9 2 C7.75 3.5625 7.75 3.5625 6 5 C2.62919544 4.78252874 0.55390936 3.09785412 -2 1 C-1.34 0.67 -0.68 0.34 0 0 Z " fill="#D12654" transform="translate(873,491)"/>
<path d="M0 0 C0.99 0 1.98 0 3 0 C2.1875 2.4375 2.1875 2.4375 1 5 C0.01 5.33 -0.98 5.66 -2 6 C-1.125 1.125 -1.125 1.125 0 0 Z " fill="#D2DDDE" transform="translate(574,379)"/>
<path d="M0 0 C0.33 0.66 0.66 1.32 1 2 C2.65 1.67 4.3 1.34 6 1 C6 2.32 6 3.64 6 5 C0.25 3.25 0.25 3.25 -2 1 C-1.34 0.67 -0.68 0.34 0 0 Z " fill="#DD1E4E" transform="translate(858,483)"/>
<path d="M0 0 C3.465 1.485 3.465 1.485 7 3 C6.01 3.66 5.02 4.32 4 5 C3.01 4.67 2.02 4.34 1 4 C0.3125 1.9375 0.3125 1.9375 0 0 Z " fill="#ECCED3" transform="translate(868,491)"/>
<path d="M0 0 C0.556875 0.226875 1.11375 0.45375 1.6875 0.6875 C1.3575 1.3475 1.0275 2.0075 0.6875 2.6875 C-0.6325 2.3575 -1.9525 2.0275 -3.3125 1.6875 C-3.3125 2.3475 -3.3125 3.0075 -3.3125 3.6875 C-4.6325 3.3575 -5.9525 3.0275 -7.3125 2.6875 C-2.88173077 -0.38942308 -2.88173077 -0.38942308 0 0 Z " fill="#E9D4D6" transform="translate(887.3125,491.3125)"/>
<path d="M0 0 C4.75 0.75 4.75 0.75 7 3 C2.25 4.125 2.25 4.125 0 3 C0 2.01 0 1.02 0 0 Z " fill="#D9E3E4" transform="translate(1113,479)"/>
<path d="M0 0 C1.32 1.32 2.64 2.64 4 4 C3 6 3 6 0 8 C-0.98120464 4.94736336 -0.98120464 3.05263664 0 0 Z " fill="#C8E3DE" transform="translate(418,464)"/>
<path d="M0 0 C0.66 0.99 1.32 1.98 2 3 C1.67 3.99 1.34 4.98 1 6 C-0.32 5.67 -1.64 5.34 -3 5 C-1.125 1.125 -1.125 1.125 0 0 Z " fill="#C9D2D3" transform="translate(710,411)"/>
<path d="M0 0 C0.66 0.33 1.32 0.66 2 1 C1.67 1.99 1.34 2.98 1 4 C0.34 4 -0.32 4 -1 4 C-1.66 5.32 -2.32 6.64 -3 8 C-3 6.02 -3 4.04 -3 2 C-2.01 2 -1.02 2 0 2 C0 1.34 0 0.68 0 0 Z " fill="#BEE5DC" transform="translate(419,366)"/>
<path d="M0 0 C0.86625 0.3403125 0.86625 0.3403125 1.75 0.6875 C0.76 2.1725 0.76 2.1725 -0.25 3.6875 C-3.22 3.1925 -3.22 3.1925 -6.25 2.6875 C-2.80384615 -0.38942308 -2.80384615 -0.38942308 0 0 Z " fill="#DD224D" transform="translate(852.25,363.3125)"/>
</svg>
